# xmcd
#
# Track frame offsets:
#	150
#	14544
#	43794
#	73145
#	84198
#	103225
#	119996
#	140419
#
# Disc length: 2371 seconds
#
# Revision: 1
# Processed by: cddbd v1.5.2PL0 Copyright (c) Steve Scherf et al.
# Submitted via: audiograbber 1.83.01
#
DISCID=75094108
DTITLE=Various Artist - Led Zeppelin - The Ultimate Tribute CD 1
DYEAR=2008
DGENRE=Rock
TTITLE0=Eric Bloom, Brian Robertson, Tony FRanklin, Doane Perry - Good Times, B
TTITLE0=ad Times
TTITLE1=Joe Lynn Turner, Jeff "Skunk" Baxter, Tony FRanklin, Doane Perry, Bob K
TTITLE1=ulick - Babe I'm Gonna Leave
TTITLE2=Jack Russell, Bob Kulick, Bruce Kulick, Tony Franklin, Doane Perry - Da
TTITLE2=zed And Confused
TTITLE3=Manny Charlton, Michael White, Billy Sherwood, Alan White - Immigrant S
TTITLE3=ong
TTITLE4=Rick Derringer, Billy Sherwood, Alan White - Ramble On
TTITLE5=Steve Lukather, Michael White, Billy Sherwood, Vinnie Colaiuta - Rock A
TTITLE5=nd Roll
TTITLE6=Albert Lee, Tony Kaye, Michael White, Billy Sherwood, Vinnie Colauiuta 
TTITLE6=/ D'Yer Maker
TTITLE7=Dweezil Zappa, Michael White, Billy Sherwood, Vinnie Colaiuta - Stairwa
TTITLE7=y To Heaven
EXTD=
EXTT0=
EXTT1=
EXTT2=
EXTT3=
EXTT4=
EXTT5=
EXTT6=
EXTT7=
PLAYORDER=
